# xmcd
#
# Track frame offsets:
# 150
# 12398
# 23346
# 37604
# 51196
# 63269
# 76901
# 86375
# 99769
# 113524
# 126676
# 141239
#
# Disc length: 2057 seconds
#
#
# Revision: 0
# Processed by: cddbd v1.5.1PL0 Copyright (c) Steve Scherf et al.
# Submitted via: FreeRIP 2.941 
#
DISCID=8508070c
DTITLE=Mariachi Mexico * El Zarco y su Mariachi Autlan - Que los cumplas feliz
DYEAR=1900
DGENRE=Folk
TTITLE0=Despierta
TTITLE1=En tu dia
TTITLE2=Alevantate
TTITLE3=Morenita mia
TTITLE4=Sin ti
TTITLE5=Flor de Azalea
TTITLE6=Las mananitas
TTITLE7=Te quiero porque te quiero
TTITLE8=La noche y tu
TTITLE9=Nochecita
TTITLE10=Buenas noches mi amor
TTITLE11=Duerme
EXTD=
EXTT0=
EXTT1=
EXTT2=
EXTT3=
EXTT4=
EXTT5=
EXTT6=
EXTT7=
EXTT8=
EXTT9=
EXTT10=
EXTT11=
PLAYORDER=
